<svg width="27" height="27" viewBox="0 0 27 27" fill="none" xmlns="http://www.w3.org/2000/svg">
<path d="M26.7287 6.97276L23.5224 4.50226C23.3045 4.36239 23.0676 4.25463 22.819 4.18231C22.5715 4.10217 22.3137 4.05763 22.0536 4.05001H12.825L13.9064 10.8H22.0536C22.275 10.8 22.5518 10.7501 22.8177 10.6677C23.0837 10.5854 23.3402 10.472 23.5211 10.3491L26.7273 7.87591C26.9096 7.75306 27 7.58971 27 7.42501C27 7.26031 26.9095 7.09696 26.7287 6.97276ZM11.475 1.35001H10.125C9.94598 1.35001 9.77429 1.42112 9.6477 1.54771C9.52112 1.6743 9.45 1.84598 9.45 2.02501V6.75001H4.9464C4.7223 6.75001 4.4469 6.79996 4.18095 6.88366C3.91365 6.96466 3.6585 7.07671 3.4776 7.20226L0.27135 9.67276C0.0891 9.79561 0 9.96031 0 10.125C0 10.2884 0.0891 10.4517 0.27135 10.5773L3.4776 13.0505C3.6585 13.1733 3.91365 13.2867 4.18095 13.3677C4.4469 13.4501 4.7223 13.5 4.9464 13.5H9.45V24.975C9.45 25.154 9.52112 25.3257 9.6477 25.4523C9.77429 25.5789 9.94598 25.65 10.125 25.65H11.475C11.654 25.65 11.8257 25.5789 11.9523 25.4523C12.0789 25.3257 12.15 25.154 12.15 24.975V2.02501C12.15 1.84598 12.0789 1.6743 11.9523 1.54771C11.8257 1.42112 11.654 1.35001 11.475 1.35001Z" fill="#69BE94"/>
</svg>
