<svg width="27" height="27" viewBox="0 0 27 27" fill="none" xmlns="http://www.w3.org/2000/svg">
<path fill-rule="evenodd" clip-rule="evenodd" d="M7.875 4.52025C7.2675 4.54613 6.831 4.6035 6.44513 4.734C5.78518 4.95497 5.18549 5.32599 4.69318 5.81791C4.20087 6.30983 3.82937 6.90923 3.60788 7.569C3.375 8.26763 3.375 9.12937 3.375 10.8551C3.375 10.962 3.375 11.016 3.38963 11.0588C3.40344 11.1001 3.42669 11.1377 3.45754 11.1686C3.48839 11.1994 3.52599 11.2227 3.56738 11.2365C3.61013 11.2511 3.66412 11.2511 3.77212 11.2511H23.2279C23.3359 11.2511 23.3899 11.2511 23.4326 11.2365C23.474 11.2227 23.5116 11.1994 23.5425 11.1686C23.5733 11.1377 23.5966 11.1001 23.6104 11.0588C23.625 11.0149 23.625 10.9609 23.625 10.8529C23.625 9.12825 23.625 8.26538 23.3921 7.57013C23.1709 6.90994 22.7996 6.31009 22.3072 5.81776C21.8149 5.32544 21.2151 4.95407 20.5549 4.73287C20.169 4.6035 19.7314 4.54613 19.125 4.52025V7.3125C19.125 7.76005 18.9472 8.18928 18.6307 8.50574C18.3143 8.82221 17.8851 9 17.4375 9C16.9899 9 16.5607 8.82221 16.2443 8.50574C15.9278 8.18928 15.75 7.76005 15.75 7.3125V4.5H11.25V7.3125C11.25 7.76005 11.0722 8.18928 10.7557 8.50574C10.4393 8.82221 10.0101 9 9.5625 9C9.11495 9 8.68572 8.82221 8.36926 8.50574C8.05279 8.18928 7.875 7.76005 7.875 7.3125V4.52025Z" fill="#69BE94"/>
<path d="M3.375 12.9375C3.375 12.672 3.375 12.5392 3.45712 12.4571C3.53925 12.375 3.672 12.375 3.9375 12.375H23.0625C23.328 12.375 23.4608 12.375 23.5429 12.4571C23.625 12.5392 23.625 12.672 23.625 12.9375V13.5C23.625 17.7424 23.625 19.8641 22.3065 21.1815C20.9891 22.5 18.8674 22.5 14.625 22.5H12.375C8.13263 22.5 6.01087 22.5 4.6935 21.1815C3.375 19.8641 3.375 17.7424 3.375 13.5V12.9375Z" fill="#69BE94"/>
<path d="M9.5625 2.8125V7.3125M17.4375 2.8125V7.3125" stroke="#69BE94" stroke-linecap="round"/>
</svg>
