<svg width="13" height="14" viewBox="0 0 13 14" fill="none" xmlns="http://www.w3.org/2000/svg">
<path fill-rule="evenodd" clip-rule="evenodd" d="M9.38762 0.538032L9.38831 1.06277C11.3166 1.21389 12.5903 2.52784 12.5924 4.54283L12.6 10.4409C12.6028 12.6378 11.2226 13.9895 9.01026 13.993L3.60632 14C1.40784 14.0028 0.0103716 12.6189 0.00760708 10.4157L4.65482e-06 4.5869C-0.00275986 2.55862 1.22607 1.24818 3.15432 1.07117L3.15363 0.546428C3.15294 0.238582 3.38101 0.00699808 3.68511 0.00699808C3.9892 0.00629843 4.21728 0.237183 4.21797 0.545029L4.21866 1.03478L8.32397 1.02919L8.32328 0.539431C8.32259 0.231586 8.55066 0.000701235 8.85476 1.58584e-06C9.15194 -0.000698064 9.38693 0.230186 9.38762 0.538032ZM1.06509 4.80311L11.5288 4.78912V4.54424C11.4991 3.04 10.7444 2.25079 9.38975 2.13325L9.39044 2.67198C9.39044 2.97283 9.15615 3.21141 8.85896 3.21141C8.55486 3.21211 8.3261 2.97423 8.3261 2.67338L8.32541 2.10666L4.2201 2.11226L4.22079 2.67828C4.22079 2.97983 3.99341 3.21771 3.68931 3.21771C3.38521 3.21841 3.15645 2.98123 3.15645 2.67968L3.15576 2.14095C1.80806 2.27598 1.06233 3.06798 1.0644 4.58552L1.06509 4.80311ZM8.56799 7.98297V7.99066C8.5749 8.3125 8.83753 8.55668 9.15614 8.54968C9.46715 8.54199 9.71526 8.27542 9.70835 7.95358C9.69384 7.64574 9.44434 7.39456 9.13402 7.39526C8.8161 7.40226 8.5673 7.66113 8.56799 7.98297ZM9.13887 11.1244C8.82095 11.1174 8.56454 10.8522 8.56385 10.5304C8.55694 10.2086 8.81197 9.942 9.12989 9.9343H9.1368C9.46163 9.9343 9.72495 10.1995 9.72495 10.5283C9.72564 10.8571 9.46301 11.1237 9.13887 11.1244ZM5.72048 7.99424C5.7343 8.31608 5.99762 8.56726 6.31554 8.55326C6.62655 8.53857 6.87466 8.2727 6.86084 7.95086C6.85324 7.63602 6.59752 7.39115 6.28651 7.39184C5.96859 7.40584 5.71979 7.6724 5.72048 7.99424ZM6.31827 11.093C6.00035 11.107 5.73772 10.8558 5.72321 10.534C5.72321 10.2121 5.97133 9.94626 6.28925 9.93157C6.60025 9.93087 6.85666 10.1757 6.86357 10.4899C6.87809 10.8124 6.62928 11.0783 6.31827 11.093ZM2.87297 8.01868C2.88679 8.34052 3.15011 8.59239 3.46803 8.5777C3.77904 8.56371 4.02715 8.29714 4.01264 7.9753C4.00573 7.66046 3.75001 7.41558 3.43831 7.41628C3.12039 7.43028 2.87228 7.69684 2.87297 8.01868ZM3.47098 11.0964C3.15307 11.1111 2.89044 10.8592 2.87592 10.5374C2.87523 10.2156 3.12404 9.949 3.44196 9.93501C3.75297 9.93431 4.00937 10.1792 4.01629 10.494C4.0308 10.8159 3.78268 11.0824 3.47098 11.0964Z" fill="#4285F4"/>
</svg>
