<svg width="20" height="20" viewBox="0 0 20 20" fill="none" xmlns="http://www.w3.org/2000/svg">
<rect width="18.861" height="18.861" rx="9.4305" transform="matrix(0.0240444 0.999711 0.999711 -0.0240444 0 0.453369)" fill="white"/>
<rect x="0.511878" y="0.487833" width="17.861" height="17.861" rx="8.9305" transform="matrix(0.0240444 0.999711 0.999711 -0.0240444 0.0118776 0.441202)" stroke="#6EBF95" stroke-opacity="0.36"/>
<path d="M9.5811 12.4547L13.3409 8.57303C13.4036 8.50827 13.4375 8.42341 13.4354 8.33606C13.4333 8.24872 13.3954 8.16559 13.3296 8.10391L13.3251 8.09994C13.2932 8.06993 13.2551 8.04634 13.2131 8.03061C13.1712 8.01488 13.1262 8.00732 13.0809 8.00841C13.0357 8.0095 12.9911 8.01921 12.9499 8.03694C12.9088 8.05467 12.8718 8.08007 12.8414 8.11157L9.30115 11.7668L5.59072 8.28596C5.55882 8.25595 5.52071 8.23237 5.47873 8.21663C5.43675 8.2009 5.39177 8.19334 5.34652 8.19443C5.30127 8.19552 5.25671 8.20523 5.21553 8.22296C5.17435 8.2407 5.13743 8.26609 5.107 8.29759L5.10275 8.30178C5.03998 8.36655 5.00614 8.4514 5.00824 8.53875C5.01034 8.62609 5.04823 8.70922 5.11403 8.7709L9.05605 12.4673C9.09071 12.4998 9.13208 12.5254 9.17764 12.5424C9.22321 12.5594 9.27202 12.5676 9.32111 12.5664C9.3702 12.5652 9.41856 12.5547 9.46325 12.5355C9.50794 12.5163 9.54804 12.4888 9.5811 12.4547Z" fill="#69BE94"/>
</svg>
