<svg width="20" height="20" viewBox="0 0 20 20" fill="none" xmlns="http://www.w3.org/2000/svg">
<rect width="20" height="20" rx="10" fill="#69BE94"/>
<path d="M7.53917 12.9468C7.25958 12.9468 6.99833 12.8505 6.81042 12.6718C6.57208 12.4472 6.4575 12.108 6.49875 11.7414L6.66833 10.2564C6.70042 9.97679 6.87 9.60554 7.06708 9.40387L10.83 5.42096C11.7696 4.42637 12.7504 4.39887 13.745 5.33846C14.7396 6.27804 14.7671 7.25887 13.8275 8.25346L10.0646 12.2364C9.87208 12.4426 9.51458 12.6351 9.235 12.681L7.75917 12.933C7.68125 12.9376 7.6125 12.9468 7.53917 12.9468ZM12.3013 5.33387C11.9483 5.33387 11.6413 5.55387 11.3296 5.88387L7.56667 9.87137C7.475 9.96762 7.36958 10.1968 7.35125 10.3297L7.18167 11.8147C7.16333 11.966 7.2 12.0897 7.2825 12.1676C7.365 12.2455 7.48875 12.273 7.64 12.2501L9.11583 11.998C9.24875 11.9751 9.46875 11.856 9.56042 11.7597L13.3233 7.77679C13.8917 7.17179 14.0979 6.61262 13.2683 5.83346C12.9017 5.48054 12.5854 5.33387 12.3013 5.33387Z" fill="white"/>
<path d="M12.9475 9.01887C12.9383 9.01887 12.9246 9.01887 12.9154 9.01887C11.4854 8.87679 10.335 7.79054 10.115 6.36971C10.0875 6.18179 10.2158 6.00762 10.4038 5.97554C10.5917 5.94804 10.7658 6.07637 10.7979 6.26429C10.9721 7.37346 11.8704 8.22596 12.9888 8.33596C13.1767 8.35429 13.3142 8.52387 13.2958 8.71179C13.2729 8.88596 13.1217 9.01887 12.9475 9.01887Z" fill="white"/>
<path d="M14.625 14.4272H6.375C6.18708 14.4272 6.03125 14.2714 6.03125 14.0835C6.03125 13.8955 6.18708 13.7397 6.375 13.7397H14.625C14.8129 13.7397 14.9688 13.8955 14.9688 14.0835C14.9688 14.2714 14.8129 14.4272 14.625 14.4272Z" fill="white"/>
</svg>
