<svg width="30" height="30" viewBox="0 0 30 30" fill="none" xmlns="http://www.w3.org/2000/svg">
<g filter="url(#filter0_b_409_5722)">
<rect x="0.454094" y="0.454094" width="29.0918" height="29.0918" rx="14.5459" stroke="#69BE94" stroke-width="0.908189"/>
</g>
<g clipPath="url(#clip0_409_5722)">
<path d="M18.9563 17.1291C18.9563 17.7591 19.1356 18.0103 19.6043 18.0103C20.6491 18.0103 21.3143 16.6791 21.3143 14.4651C21.3143 11.0811 18.8483 9.4611 15.7696 9.4611C12.6023 9.4611 9.72158 11.5851 9.72158 15.5991C9.72158 19.4331 12.2416 21.5211 16.1116 21.5211C17.4256 21.5211 18.3076 21.3771 19.6568 20.9271L19.9463 22.1324C18.6143 22.5651 17.1908 22.6903 16.0936 22.6903C11.0176 22.6903 8.29883 19.9003 8.29883 15.5983C8.29883 11.2603 11.4496 8.30835 15.7876 8.30835C20.3056 8.30835 22.6988 11.0083 22.6988 14.3203C22.6988 17.1283 21.8176 19.2703 19.0456 19.2703C17.7848 19.2703 16.9576 18.7663 16.8496 17.6496C16.5256 18.8916 15.6616 19.2703 14.4908 19.2703C12.9248 19.2703 11.6108 18.0636 11.6108 15.6343C11.6108 13.1863 12.7636 11.6743 14.8336 11.6743C15.9316 11.6743 16.6156 12.1063 16.9201 12.7903L17.4428 11.8363H18.9548V17.1291H18.9563ZM16.7431 14.7531C16.7431 13.7638 16.0043 13.3491 15.3923 13.3491C14.7263 13.3491 13.9891 13.8883 13.9891 15.4731C13.9891 16.7331 14.5471 17.4351 15.3923 17.4351C15.9863 17.4351 16.7431 17.0571 16.7431 16.0131V14.7531Z" fill="#69BE94"/>
</g>
<defs>
<filter id="filter0_b_409_5722" x="-23" y="-23" width="76" height="76" filterUnits="userSpaceOnUse" color-interpolation-filters="sRGB">
<feFlood flood-opacity="0" result="BackgroundImageFix"/>
<feGaussianBlur in="BackgroundImageFix" stdDeviation="11.5"/>
<feComposite in2="SourceAlpha" operator="in" result="effect1_backgroundBlur_409_5722"/>
<feBlend mode="normal" in="SourceGraphic" in2="effect1_backgroundBlur_409_5722" result="shape"/>
</filter>
<clipPath id="clip0_409_5722">
<rect width="15" height="15" fill="white" transform="translate(8 8)"/>
</clipPath>
</defs>
</svg>
