<svg width="20" height="20" viewBox="0 0 20 20" fill="none" xmlns="http://www.w3.org/2000/svg">
<rect width="20" height="20" rx="10" fill="white"/>
<path fill-rule="evenodd" clip-rule="evenodd" d="M10.0003 5.33325C10.3225 5.33325 10.5837 5.59442 10.5837 5.91659V14.0833C10.5837 14.4054 10.3225 14.6666 10.0003 14.6666C9.67816 14.6666 9.41699 14.4054 9.41699 14.0833V5.91659C9.41699 5.59442 9.67816 5.33325 10.0003 5.33325Z" fill="#69BE94"/>
<path fill-rule="evenodd" clip-rule="evenodd" d="M5.33301 10.0001C5.33301 9.67792 5.59418 9.41675 5.91634 9.41675H14.083C14.4052 9.41675 14.6663 9.67792 14.6663 10.0001C14.6663 10.3222 14.4052 10.5834 14.083 10.5834H5.91634C5.59418 10.5834 5.33301 10.3222 5.33301 10.0001Z" fill="#69BE94"/>
</svg>
