<svg width="21" height="21" viewBox="0 0 21 21" fill="none" xmlns="http://www.w3.org/2000/svg">
<path d="M12.25 16.03C11.2956 15.5687 10.476 14.8696 9.87 14H2.625V3.5H18.375V5.4775C19.0834 5.9754 19.6795 6.61626 20.125 7.35875V3.5C20.125 3.03587 19.9406 2.59075 19.6124 2.26256C19.2842 1.93437 18.8391 1.75 18.375 1.75H2.625C2.16087 1.75 1.71575 1.93437 1.38756 2.26256C1.05937 2.59075 0.875 3.03587 0.875 3.5V14C0.875 14.4641 1.05937 14.9092 1.38756 15.2374C1.71575 15.5656 2.16087 15.75 2.625 15.75H8.75V17.5H7V19.25H14V17.5H12.25V16.03Z" fill="#69BE94"/>
<path d="M14.875 5.25C13.8366 5.25 12.8216 5.55791 11.9583 6.13478C11.0949 6.71166 10.422 7.5316 10.0246 8.49091C9.62727 9.45022 9.52331 10.5058 9.72588 11.5242C9.92845 12.5426 10.4285 13.4781 11.1627 14.2123C11.8969 14.9465 12.8324 15.4466 13.8508 15.6491C14.8692 15.8517 15.9248 15.7477 16.8841 15.3504C17.8434 14.953 18.6633 14.2801 19.2402 13.4167C19.8171 12.5534 20.125 11.5384 20.125 10.5C20.125 9.10761 19.5719 7.77226 18.5873 6.78769C17.6027 5.80312 16.2674 5.25 14.875 5.25ZM14.875 11.8125C14.6154 11.8125 14.3617 11.7355 14.1458 11.5913C13.93 11.4471 13.7618 11.2421 13.6624 11.0023C13.5631 10.7624 13.5371 10.4985 13.5877 10.2439C13.6384 9.98934 13.7634 9.75548 13.9469 9.57192C14.1305 9.38837 14.3643 9.26336 14.6189 9.21272C14.8735 9.16208 15.1374 9.18807 15.3773 9.28741C15.6171 9.38675 15.8221 9.55498 15.9663 9.77081C16.1105 9.98665 16.1875 10.2404 16.1875 10.5C16.1875 10.8481 16.0492 11.1819 15.8031 11.4281C15.5569 11.6742 15.2231 11.8125 14.875 11.8125Z" fill="#69BE94"/>
</svg>
