<svg width="30" height="30" viewBox="0 0 30 30" fill="none" xmlns="http://www.w3.org/2000/svg">
<rect x="0.5" y="0.5" width="29" height="29" rx="14.5" stroke="#69BE94"/>
<path d="M10.625 17.3125C10.2769 17.3125 9.94306 17.1742 9.69692 16.9281C9.45078 16.6819 9.3125 16.3481 9.3125 16C9.3125 15.6519 9.45078 15.3181 9.69692 15.0719C9.94306 14.8258 10.2769 14.6875 10.625 14.6875C10.9731 14.6875 11.3069 14.8258 11.5531 15.0719C11.7992 15.3181 11.9375 15.6519 11.9375 16C11.9375 16.3481 11.7992 16.6819 11.5531 16.9281C11.3069 17.1742 10.9731 17.3125 10.625 17.3125ZM15 17.3125C14.6519 17.3125 14.3181 17.1742 14.0719 16.9281C13.8258 16.6819 13.6875 16.3481 13.6875 16C13.6875 15.6519 13.8258 15.3181 14.0719 15.0719C14.3181 14.8258 14.6519 14.6875 15 14.6875C15.3481 14.6875 15.6819 14.8258 15.9281 15.0719C16.1742 15.3181 16.3125 15.6519 16.3125 16C16.3125 16.3481 16.1742 16.6819 15.9281 16.9281C15.6819 17.1742 15.3481 17.3125 15 17.3125ZM19.375 17.3125C19.0269 17.3125 18.6931 17.1742 18.4469 16.9281C18.2008 16.6819 18.0625 16.3481 18.0625 16C18.0625 15.6519 18.2008 15.3181 18.4469 15.0719C18.6931 14.8258 19.0269 14.6875 19.375 14.6875C19.7231 14.6875 20.0569 14.8258 20.3031 15.0719C20.5492 15.3181 20.6875 15.6519 20.6875 16C20.6875 16.3481 20.5492 16.6819 20.3031 16.9281C20.0569 17.1742 19.7231 17.3125 19.375 17.3125Z" fill="#69BE94"/>
</svg>
