<svg width="34" height="34" viewBox="0 0 34 34" fill="none" xmlns="http://www.w3.org/2000/svg">
<rect x="0.5" y="0.5" width="33" height="33" rx="16.5" stroke="white"/>
<path d="M12 19.5C11.6022 19.5 11.2206 19.342 10.9393 19.0607C10.658 18.7794 10.5 18.3978 10.5 18C10.5 17.6022 10.658 17.2206 10.9393 16.9393C11.2206 16.658 11.6022 16.5 12 16.5C12.3978 16.5 12.7794 16.658 13.0607 16.9393C13.342 17.2206 13.5 17.6022 13.5 18C13.5 18.3978 13.342 18.7794 13.0607 19.0607C12.7794 19.342 12.3978 19.5 12 19.5ZM17 19.5C16.6022 19.5 16.2206 19.342 15.9393 19.0607C15.658 18.7794 15.5 18.3978 15.5 18C15.5 17.6022 15.658 17.2206 15.9393 16.9393C16.2206 16.658 16.6022 16.5 17 16.5C17.3978 16.5 17.7794 16.658 18.0607 16.9393C18.342 17.2206 18.5 17.6022 18.5 18C18.5 18.3978 18.342 18.7794 18.0607 19.0607C17.7794 19.342 17.3978 19.5 17 19.5ZM22 19.5C21.6022 19.5 21.2206 19.342 20.9393 19.0607C20.658 18.7794 20.5 18.3978 20.5 18C20.5 17.6022 20.658 17.2206 20.9393 16.9393C21.2206 16.658 21.6022 16.5 22 16.5C22.3978 16.5 22.7794 16.658 23.0607 16.9393C23.342 17.2206 23.5 17.6022 23.5 18C23.5 18.3978 23.342 18.7794 23.0607 19.0607C22.7794 19.342 22.3978 19.5 22 19.5Z" fill="white"/>
</svg>
