<svg width="30" height="30" viewBox="0 0 30 30" fill="none" xmlns="http://www.w3.org/2000/svg">
<g filter="url(#filter0_b_409_5751)">
<rect x="0.454094" y="0.454094" width="29.0918" height="29.0918" rx="14.5459" stroke="#69BE94" stroke-width="0.908189"/>
</g>
<path d="M22.842 12.1999V12.1583C22.2548 10.5551 21.1894 9.17101 19.7899 8.19316C18.3904 7.21531 16.7243 6.69092 15.017 6.69092C13.3097 6.69092 11.6436 7.21531 10.2441 8.19316C8.84456 9.17101 7.77916 10.5551 7.19199 12.1583C7.19199 12.1583 7.19199 12.1583 7.19199 12.1999C6.53626 14.009 6.53626 15.9909 7.19199 17.7999V17.8416C7.77916 19.4448 8.84456 20.8289 10.2441 21.8067C11.6436 22.7846 13.3097 23.309 15.017 23.309C16.7243 23.309 18.3904 22.7846 19.7899 21.8067C21.1894 20.8289 22.2548 19.4448 22.842 17.8416C22.842 17.8416 22.842 17.8416 22.842 17.7999C23.4977 15.9909 23.4977 14.009 22.842 12.1999ZM8.55033 16.6666C8.26135 15.5743 8.26135 14.4256 8.55033 13.3333H10.1003C9.96702 14.4404 9.96702 15.5595 10.1003 16.6666H8.55033ZM9.23366 18.3333H10.4003C10.5959 19.0765 10.8755 19.795 11.2337 20.4749C10.4164 19.9182 9.73324 19.1867 9.23366 18.3333ZM10.4003 11.6666H9.23366C9.72605 10.8158 10.4005 10.0845 11.2087 9.52494C10.8591 10.206 10.5879 10.9245 10.4003 11.6666ZM14.167 21.4166C13.1435 20.6655 12.4246 19.571 12.142 18.3333H14.167V21.4166ZM14.167 16.6666H11.7837C11.6282 15.5609 11.6282 14.4389 11.7837 13.3333H14.167V16.6666ZM14.167 11.6666H12.142C12.4246 10.4289 13.1435 9.33437 14.167 8.58328V11.6666ZM20.767 11.6666H19.6003C19.4047 10.9234 19.1251 10.2049 18.767 9.52494C19.5842 10.0817 20.2674 10.8132 20.767 11.6666ZM15.8337 8.58328C16.8572 9.33437 17.576 10.4289 17.8587 11.6666H15.8337V8.58328ZM15.8337 21.4166V18.3333H17.8587C17.576 19.571 16.8572 20.6655 15.8337 21.4166ZM18.217 16.6666H15.8337V13.3333H18.217C18.3725 14.4389 18.3725 15.5609 18.217 16.6666ZM18.792 20.4749C19.1501 19.795 19.4297 19.0765 19.6253 18.3333H20.792C20.2924 19.1867 19.6092 19.9182 18.792 20.4749ZM21.4503 16.6666H19.9003C19.9681 16.1137 20.0015 15.557 20.0003 14.9999C20.0012 14.4429 19.9678 13.8863 19.9003 13.3333H21.4503C21.7393 14.4256 21.7393 15.5743 21.4503 16.6666Z" fill="#69BE94"/>
<defs>
<filter id="filter0_b_409_5751" x="-23" y="-23" width="76" height="76" filterUnits="userSpaceOnUse" color-interpolation-filters="sRGB">
<feFlood flood-opacity="0" result="BackgroundImageFix"/>
<feGaussianBlur in="BackgroundImageFix" stdDeviation="11.5"/>
<feComposite in2="SourceAlpha" operator="in" result="effect1_backgroundBlur_409_5751"/>
<feBlend mode="normal" in="SourceGraphic" in2="effect1_backgroundBlur_409_5751" result="shape"/>
</filter>
</defs>
</svg>
